<svg width="512" height="512" viewBox="0 0 512 512" fill="none" xmlns="http://www.w3.org/2000/svg">
<g clip-path="url(#clip0_340_626)">
<path d="M320.454 357.037H375.714L287.5 128.097H226.402L138.188 357.037H193.452L207.868 318.257H291.218L276.13 275.345H221.25L256.95 176.837L320.454 357.037ZM502.678 187.536C500.714 180.464 493.41 176.31 486.308 178.282C479.234 180.246 475.088 187.574 477.052 194.648C482.598 214.618 485.408 235.26 485.408 256C485.408 382.496 382.496 485.404 256 485.404C129.504 485.404 26.594 382.496 26.594 256C26.594 129.502 129.504 26.592 256 26.592C309.586 26.592 361.436 45.628 402.358 79.504C400.766 83.304 399.882 87.474 399.882 91.85C399.882 109.52 414.206 123.844 431.876 123.844C449.546 123.844 463.87 109.52 463.87 91.85C463.87 74.18 449.546 59.856 431.876 59.856C428.474 59.856 425.2 60.398 422.124 61.382C376.044 22.112 317.026 0 256 0C114.842 0 0 114.84 0 256C0 397.158 114.842 511.998 256 511.998C397.158 511.998 512 397.158 512 256C512 232.856 508.866 209.82 502.678 187.536Z" fill="#112B49"/>
</g>
<defs>
<clipPath id="clip0_340_626">
<rect width="512" height="512" fill="white"/>
</clipPath>
</defs>
</svg>
