<svg width="48" height="48" viewBox="0 0 48 48" fill="none" xmlns="http://www.w3.org/2000/svg">
<path d="M0 24C0 10.7452 10.7452 0 24 0C37.2548 0 48 10.7452 48 24C48 37.2548 37.2548 48 24 48C10.7452 48 0 37.2548 0 24Z" fill="#7289DA"/>
<mask id="mask0" mask-type="alpha" maskUnits="userSpaceOnUse" x="0" y="0" width="48" height="48">
<path fill-rule="evenodd" clip-rule="evenodd" d="M0 24C0 10.7452 10.7452 0 24 0C37.2548 0 48 10.7452 48 24C48 37.2548 37.2548 48 24 48C10.7452 48 0 37.2548 0 24Z" fill="white"/>
</mask>
<g mask="url(#mask0)">
<rect x="16" y="17" width="18" height="14" fill="#7289DA"/>
<path fill-rule="evenodd" clip-rule="evenodd" d="M14.9051 11H33.8949C35.4962 11 36.8 12.288 36.8 13.884V39L33.7531 36.34L32.0384 34.772L30.2245 33.106L30.9755 35.696H14.9051C13.3038 35.696 12 34.408 12 32.812V13.884C12 12.288 13.3038 11 14.9051 11ZM27.4894 28.15C27.9145 28.682 28.4247 29.284 28.4247 29.284C31.5566 29.186 32.7611 27.156 32.7611 27.156C32.7611 22.648 30.7205 18.994 30.7205 18.994C28.6798 17.482 26.7383 17.524 26.7383 17.524L26.5399 17.748C28.949 18.476 30.0686 19.526 30.0686 19.526C28.5947 18.728 27.1493 18.336 25.803 18.182C24.7826 18.07 23.8048 18.098 22.9403 18.21C22.8661 18.21 22.8027 18.2207 22.7312 18.2327C22.7208 18.2344 22.7102 18.2362 22.6994 18.238C22.2034 18.28 20.9989 18.462 19.4825 19.12C18.9582 19.358 18.6464 19.526 18.6464 19.526C18.6464 19.526 19.8226 18.42 22.3735 17.692L22.2318 17.524C22.2318 17.524 20.2903 17.482 18.2496 18.994C18.2496 18.994 16.2089 22.648 16.2089 27.156C16.2089 27.156 17.3993 29.186 20.5312 29.284C20.5312 29.284 21.0555 28.654 21.4807 28.122C19.6809 27.59 19.0007 26.47 19.0007 26.47C19.0007 26.47 19.1424 26.568 19.3975 26.708C19.4117 26.722 19.4258 26.736 19.4542 26.75C19.4754 26.764 19.4967 26.7745 19.5179 26.785C19.5392 26.7955 19.5605 26.806 19.5817 26.82C19.936 27.016 20.2903 27.17 20.6162 27.296C21.1973 27.52 21.8917 27.744 22.6994 27.898C23.7623 28.094 25.0094 28.164 26.3698 27.912C27.0359 27.8 27.7161 27.604 28.4247 27.31C28.9207 27.128 29.4734 26.862 30.0544 26.484C30.0544 26.484 29.3458 27.632 27.4894 28.15Z" fill="white"/>
<path fill-rule="evenodd" clip-rule="evenodd" d="M21 22.6C21 21.7207 21.6327 21 22.4341 21C23.2355 21 23.8822 21.7207 23.8682 22.6C23.8682 23.4793 23.2355 24.2 22.4341 24.2C21.6467 24.2 21 23.4793 21 22.6ZM26.1318 22.6C26.1318 21.7207 26.7645 21 27.5659 21C28.3673 21 29 21.7207 29 22.6C29 23.4793 28.3673 24.2 27.5659 24.2C26.7786 24.2 26.1318 23.4793 26.1318 22.6Z" fill="white"/>
</g>
</svg>
