<svg width="48" height="48" viewBox="0 0 48 48" fill="none" xmlns="http://www.w3.org/2000/svg">
<g id="call_24px">
<path id="icon/communication/call_24px" d="M38.4435 30.5361L33.3635 29.9561C32.1435 29.8161 30.9435 30.2361 30.0835 31.0961L26.4035 34.7761C20.7435 31.8961 16.1035 27.2761 13.2235 21.5961L16.9235 17.8961C17.7835 17.0361 18.2035 15.8361 18.0635 14.6161L17.4835 9.57613C17.2435 7.55613 15.5435 6.03613 13.5035 6.03613H10.0435C7.78348 6.03613 5.90348 7.91613 6.04348 10.1761C7.10348 27.2561 20.7635 40.8961 37.8235 41.9561C40.0835 42.0961 41.9635 40.2161 41.9635 37.9561V34.4961C41.9835 32.4761 40.4635 30.7761 38.4435 30.5361Z" fill="#5D5FEF"/>
</g>
</svg>
