<svg width="552" height="552" viewBox="0 0 552 552" fill="none" xmlns="http://www.w3.org/2000/svg">
<path d="M176.132 322.175C201.768 322.175 222.549 301.393 222.549 275.758C222.549 250.122 201.768 229.34 176.132 229.34C150.496 229.34 129.714 250.122 129.714 275.758C129.714 301.393 150.496 322.175 176.132 322.175ZM66.4176 415.01C92.0533 415.01 112.835 394.228 112.835 368.593C112.835 342.957 92.0533 322.175 66.4176 322.175C40.7819 322.175 20 342.957 20 368.593C20 394.228 40.7819 415.01 66.4176 415.01ZM485.582 415.01C511.218 415.01 532 394.228 532 368.593C532 342.957 511.218 322.175 485.582 322.175C459.947 322.175 439.165 342.957 439.165 368.593C439.165 394.228 459.947 415.01 485.582 415.01Z" fill="black"/>
<path d="M333.131 277.714C331.647 262.206 330.891 249.298 319.011 240.226C303.965 228.737 286.922 236.192 265.929 228.615C245.301 223.624 230 205.309 230 183.479C230 157.809 251.156 137 277.253 137C296.581 137 313.199 148.415 320.519 164.765C331.722 186.044 324.441 207.7 338.516 218.608C355.183 231.524 377.652 222.066 402.724 234.303C410.78 238.005 417.599 243.877 422.404 251.154C427.209 258.431 430 267.113 430 276.437C430 298.267 414.699 316.582 394.071 321.572C373.078 329.15 356.035 321.695 340.989 333.184C324.07 346.103 333.128 367.717 319.339 390.549C311.512 405.583 295.604 415.873 277.253 415.873C251.156 415.873 230 395.064 230 369.394C230 350.747 241.164 334.665 257.276 327.261C282.348 315.024 304.817 324.482 321.484 311.566C331.098 304.115 333.131 292.621 333.131 277.714Z" fill="#D0021B"/>
<rect x="0.5" y="0.5" width="551" height="551" rx="4.5" stroke="#9747FF" stroke-dasharray="10 5"/>
</svg>
