<svg width="77" height="77" viewBox="0 0 77 77" fill="none" xmlns="http://www.w3.org/2000/svg">
<path d="M65.744 0.6332H11.2004C5.05891 0.6332 0.0803986 5.54008 0.0803986 11.5932V65.352C0.0803986 71.4051 5.05891 76.312 11.2004 76.312H65.744C71.8855 76.312 76.864 71.4051 76.864 65.352V11.5932C76.864 5.54008 71.8855 0.6332 65.744 0.6332Z" fill="#3261BC"/>
<path d="M65.7996 3.9212C67.864 3.9212 69.844 4.7295 71.3037 6.16825C72.7635 7.60701 73.5836 9.55849 73.5836 11.5932V65.352C73.5836 67.3867 72.7635 69.3382 71.3037 70.7769C69.844 72.2157 67.864 73.024 65.7996 73.024H11.2004C10.1782 73.024 9.16611 72.8256 8.22168 72.44C7.27725 72.0543 6.41906 71.4893 5.69626 70.7769C4.97346 70.0645 4.40021 69.2187 4.00895 68.2879C3.61769 67.357 3.4164 66.3595 3.4164 65.352V11.5932C3.4164 10.5857 3.61769 9.58818 4.00895 8.65734C4.40021 7.7265 4.97346 6.88065 5.69626 6.16825C6.41906 5.45585 7.27725 4.89086 8.22168 4.50523C9.16611 4.1196 10.1782 3.9212 11.2004 3.9212H65.744M65.744 0.6332H11.2004C8.25128 0.6332 5.42289 1.7878 3.33737 3.84331C1.25186 5.89882 0.0803986 8.68652 0.0803986 11.5932V65.352C0.0803986 68.2587 1.25186 71.0464 3.33737 73.1019C5.42289 75.1574 8.25128 76.312 11.2004 76.312H65.744C68.6931 76.312 71.5215 75.1574 73.607 73.1019C75.6925 71.0464 76.864 68.2587 76.864 65.352V11.5932C76.864 8.68652 75.6925 5.89882 73.607 3.84331C71.5215 1.7878 68.6931 0.6332 65.744 0.6332Z" fill="#2C54A5"/>
<path d="M29.5484 11.3192H16.1488C13.2931 11.3192 10.978 13.601 10.978 16.4156V56.3648C10.978 59.1794 13.2931 61.4612 16.1488 61.4612H29.5484C32.4041 61.4612 34.7192 59.1794 34.7192 56.3648V16.4156C34.7192 13.601 32.4041 11.3192 29.5484 11.3192Z" fill="white"/>
<path d="M60.8512 11.3192H47.4516C44.5959 11.3192 42.2808 13.601 42.2808 16.4156V37.2944C42.2808 40.109 44.5959 42.3908 47.4516 42.3908H60.8512C63.7069 42.3908 66.022 40.109 66.022 37.2944V16.4156C66.022 13.601 63.7069 11.3192 60.8512 11.3192Z" fill="white"/>
</svg>
