<svg width="48" height="48" viewBox="0 0 48 48" fill="none" xmlns="http://www.w3.org/2000/svg">
<path d="M24 0C37.2548 0 48 10.7452 48 24C48 37.2548 37.2548 48 24 48C10.7452 48 0 37.2548 0 24C0 10.7452 10.7452 0 24 0Z" fill="#7F4DA0"/>
<path d="M30.3941 20.9584C30.2774 20.0101 29.9859 19.2655 29.4683 18.6059C28.7962 17.7566 27.9372 17.2481 26.6655 16.9464C25.8368 16.7453 25.5019 16.7684 25.2022 17.0422C24.923 17.2987 24.8685 17.8129 25.0819 18.146C25.2319 18.3877 25.405 18.4742 25.8864 18.5687C26.5275 18.6867 26.9706 18.8398 27.3736 19.0702C28.2291 19.5642 28.6274 20.3371 28.6701 21.5885C28.69 22.176 28.7408 22.3566 28.946 22.565C29.3264 22.9459 30.0033 22.8719 30.2904 22.416C30.3958 22.2442 30.4118 22.1694 30.423 21.7705C30.4303 21.5235 30.4197 21.1558 30.3941 20.9584V20.9584Z" fill="white"/>
<path d="M33.7445 22.0277C33.5756 19.1224 32.4392 16.7848 30.4054 15.1402C29.2595 14.2161 27.8744 13.5807 26.3562 13.2716C25.8 13.1611 24.7761 13.0715 24.6004 13.1228C24.4346 13.1702 24.2002 13.3497 24.0957 13.512C23.9851 13.688 23.9602 14.0811 24.0545 14.3084C24.2067 14.6884 24.4897 14.8227 25.2825 14.892C26.5046 14.9989 27.7651 15.4283 28.7175 16.064C29.8048 16.7877 30.6692 17.7776 31.2283 18.9408C31.7115 19.9402 32.0086 21.3805 32.0004 22.6703C31.9976 23.1368 32.0697 23.4002 32.2573 23.5929C32.5404 23.889 32.9532 23.9538 33.3175 23.7571C33.7212 23.5447 33.8156 23.1721 33.7445 22.0277V22.0277Z" fill="white"/>
<path d="M37.4524 33.2164C37.3955 33.0503 37.2629 32.7941 37.1682 32.6471C36.5713 31.7458 33.3646 29.2363 31.7636 28.4155C30.8495 27.9459 30.1721 27.7894 29.67 27.9364C29.13 28.0883 28.8458 28.3396 27.9411 29.464C27.5764 29.9146 27.2022 30.3369 27.1027 30.4032C26.8564 30.574 26.3733 30.7116 26.0322 30.7116C25.2412 30.7068 23.806 30.1945 22.7023 29.5209C21.845 28.9991 20.7461 28.0646 19.903 27.1395C18.9082 26.0532 18.231 25.0949 17.6956 24.0133C17.0041 22.6233 16.8289 21.7742 17.1178 21.1527C17.1888 20.9962 17.2836 20.8302 17.3262 20.7779C17.3688 20.7306 17.8141 20.3652 18.3066 19.9667C19.273 19.1983 19.4293 19.0228 19.6093 18.4962C19.8366 17.8273 19.7751 17.1441 19.4246 16.4563C19.1545 15.9345 18.4488 14.796 17.9372 14.0607C17.2599 13.093 15.5736 11.0246 15.2373 10.7447C14.631 10.2514 13.8542 10.1659 12.9968 10.4981C12.0922 10.8491 10.3964 12.2153 9.67167 13.1688C9.01801 14.0322 8.76705 14.6441 8.72911 15.4506C8.69598 16.1147 8.7528 16.3899 9.10332 17.239C11.8459 23.8994 15.9383 29.2173 21.5608 33.4394C24.4975 35.6452 27.5432 37.3246 30.7026 38.4726C32.5451 39.1415 33.3456 39.1746 34.2882 38.6244C34.6861 38.3872 35.6714 37.3767 36.2208 36.6415C37.1303 35.4175 37.4666 34.853 37.5613 34.4023C37.6276 34.094 37.5755 33.558 37.4524 33.2164V33.2164Z" fill="white"/>
<path d="M37.1554 22.695C37.0948 21.0516 36.8181 19.7035 36.2411 18.2006C35.6714 16.7222 35.0949 15.7575 34.0062 14.4527C32.9768 13.2293 32.1773 12.5307 30.9092 11.7531C29.1401 10.6697 26.9871 9.95278 24.5743 9.65126C23.7515 9.54588 23.5654 9.55341 23.3129 9.72185C22.8237 10.0409 22.8303 10.8368 23.321 11.1511C23.4834 11.2511 23.6276 11.2875 24.2858 11.3737C25.2961 11.5097 25.9458 11.6379 26.7167 11.8482C29.7397 12.6746 32.0645 14.3638 33.6186 16.8712C34.9193 18.9612 35.4592 21.0514 35.3825 23.7208C35.3558 24.6233 35.3752 24.7821 35.5132 24.9989C35.7774 25.4031 36.474 25.483 36.8315 25.1477C37.0538 24.9433 37.0958 24.7898 37.1396 24.0174C37.1606 23.6145 37.1651 23.0197 37.1554 22.695V22.695Z" fill="white"/>
</svg>
